<?xml version="1.0" encoding="utf-8"?>
<!-- Generator: Adobe Illustrator 24.1.2, SVG Export Plug-In . SVG Version: 6.00 Build 0)  -->
<svg version="1.1" id="Layer_1" xmlns="http://www.w3.org/2000/svg" xmlns:xlink="http://www.w3.org/1999/xlink" x="0px" y="0px"
	 viewBox="0 0 800 800" style="enable-background:new 0 0 800 800;" xml:space="preserve">
<style type="text/css">
	.st0{fill:#7FCAFF;}
</style>
<path id="BelgorodOblast" class="st0" d="M161.5,438.2c-2-2.3-5.2-18.6-7-36c-1.7-17.7-4.6-33.1-6.1-34.5c-1.7-1.5-9.3-4.9-16.8-7.8
	c-11.6-4.1-16-8.1-24.4-21.2c-9.6-15.1-9.9-16.5-6.7-27.3c1.7-6.1,4.9-11.9,7-12.5c5.8-2.3,27,6.7,41.5,17.4
	c9,7,16.5,10.4,22.9,10.4c7.8,0,11.3,2.3,19.7,12.5c9.6,11.6,10.4,14.2,10.4,31.3c-0.3,27.9-3.8,38.9-17.7,54.5
	C169.3,442,165.9,443.7,161.5,438.2L161.5,438.2z"/>
<path id="KalugaOblast" class="st0" d="M212.9,167.9c-13.6-4.6-14.2-5.2-12.8-13.9c0.9-5.2,5.5-14.8,10.4-21.5
	c8.1-11.3,8.7-13.6,7.3-29c-1.7-14.2-1.2-16.8,3.2-18.6c3.5-1.5,7.8,0.3,13.1,5.2c7.3,7.3,8.7,7.5,35.1,5.8
	c15.1-0.9,30.5-2,34.5-2.6c5.8-0.9,8.4,0.9,12.2,7.3c2.9,4.9,7,8.7,9.3,8.7c6.4,0,13.3,11.6,13.3,22.6c0,7.3-2.3,11.9-9,18.3
	c-10.2,9.6-16.5,10.2-35.1,3.8l-13.3-4.6l-18.9,11.9C241.9,174.2,234.9,175.1,212.9,167.9L212.9,167.9z"/>
<path id="KostromaOblast" class="st0" d="M547.9,189.3c-22-28.1-36.8-42.4-43.2-42.4c-3.2,0-7.5-2-9.6-4.4
	c-2.9-3.8-2.6-5.5,1.7-10.4c4.4-4.9,4.6-7,1.7-11.6c-5.2-8.4-2-11.3,12.2-11.3c8.4,0,15.1,2,22,7c12.8,9.6,38.6,15.7,45,10.4
	c3.8-3.2,5.5-2.9,10.7,1.7c14.5,12.5,19.4,19.7,17.7,27.6c-1.2,6.7,0.3,8.7,10.4,14.2c13.3,7.5,15.1,11.6,5.5,11.6
	c-3.5,0-9.3,2.6-12.8,6.1c-5.2,4.6-7.5,5.2-12.2,2.9c-11-6.1-20.3-4.1-25.2,5.2c-2.3,4.6-5.5,9.3-7,10.2
	C563.6,207,555.8,199.5,547.9,189.3L547.9,189.3z"/>
<path id="KurskOblast" class="st0" d="M196.9,332.9c-7.3-9-11.9-11.9-21.5-13.3c-7.5-1.5-18.3-6.4-27-13.1
	c-7.8-5.8-20-12.2-26.7-14.2c-10.2-2.9-12.5-4.9-12.5-10.2c0-3.8-2.6-14.2-5.8-23.5c-7.5-22-7.5-22.9,4.4-28.4
	c5.5-2.6,12.2-9,14.5-13.9c4.6-9,5.5-9.3,19.7-7.8c13.9,1.5,16,2.9,30.5,18.6c21.5,23.8,23.5,27,27,45.5
	c2.6,14.2,4.9,18.6,18.9,32.2c8.7,8.7,15.7,17.1,15.7,18.6s-3.5,4.9-7.8,7.8C204.2,345.4,206.8,345.1,196.9,332.9L196.9,332.9z"/>
<path id="LipetskOblast" class="st0" d="M294.4,370.1c-7.3-3.8-11.6-8.7-13.9-15.7c-1.7-5.5-4.9-11.3-6.7-12.5
	c-2-1.2-5.8-5.5-8.4-9.9c-2.9-4.4-9-8.4-13.9-9.6c-4.9-1.2-12.5-6.7-17.4-12.8l-8.7-10.4l10.2-0.9c8.7-0.9,12.2-3.5,22.3-17.4
	c6.4-9.3,12.8-17.7,14.2-19.1c1.2-1.5,5.5,1.2,9.3,5.5l7,8.1l12.8-5.2c7-2.6,14.2-5.5,16-6.4c2.9-1.2,33.1,35.1,33.1,39.5
	c0,0.9-7.3,7-16,13.3l-16,11.6l0.6,21.5c0.9,20.9,0.6,21.8-6.7,23.5C307.4,374.7,301,373.5,294.4,370.1L294.4,370.1z"/>
<path id="Moscow" class="st0" d="M375,137.1c-0.9-3.5-1.7-10.4-1.7-15.4c0-8.7,0.9-9.3,12.8-11.3c16.5-2.3,19.1-0.6,19.1,13.3
	c0,12.8-0.6,13.1-16.5,16.8C377.6,142.9,376.5,142.6,375,137.1L375,137.1z"/>
<path id="MoscowOblast" class="st0" d="M357.6,214.6c-0.6-0.9,0.6-5.5,2.6-10.4c3.5-8.4,2.9-10.7-6.4-31
	c-8.4-18.6-9.9-23.8-8.1-35.4c2-16-5.2-34.2-13.3-34.2c-2.6,0-7.8-4.6-11.3-10.2L315,83.1l9.6-17.4c7.8-14.2,11.3-18,19.7-20.3
	c16.5-4.6,22.3-3.5,29.9,6.1c6.4,8.1,10.2,9.6,35.4,14.5c36.3,7,56.3,21.2,36.3,25.8c-5.2,1.2-8.1,5.8-13.3,21.5
	c-6.1,17.4-6.4,21.5-3.5,31.3c1.7,6.1,7,14.5,11.6,18.3c9.6,7.8,9.9,10.4,2.6,26.1c-5.2,11.6-5.8,11.9-26.7,15.7
	c-11.9,2-29.6,5.5-39.5,7.5C367.2,214.3,358.5,215.1,357.6,214.6L357.6,214.6z M393.6,147.3l18.9-5.2l0.9-15.7
	c1.2-22.9-2-25.8-27-23.5l-20.3,2l0.9,20.3c0.9,21.5,2,27.6,5.5,27.6C373.9,152.8,383.1,150.2,393.6,147.3z"/>
<path id="OryolOblast" class="st0" d="M212,285.6c-1.5-2-4.1-11.6-6.1-20.9c-2.9-14.2-6.1-19.4-21.2-35.7c-10.2-11-16.8-20-15.4-22
	c7.5-13.6,19.1-24.9,23.2-23.2c2.6,0.9,6.1-0.3,8.4-3.5c3.5-4.6,5.5-4.6,24.1-1.2l20.3,3.8l1.7,14.2c1.5,9.6,4.9,17.1,10.4,23.5
	c12.8,14.5,11.9,30.8-2.6,51.1c-10.4,15.4-11.3,16-25.8,16.8C219.2,289.1,213.4,288,212,285.6L212,285.6z"/>
<path id="RyazanOblast" class="st0" d="M428.7,317.3c-9-9-9.3-9-22.6-5.5c-9.6,2.6-14.2,2.9-14.8,0.6c-2.3-6.7-10.2-11.6-18.9-11.6
	c-11.9-0.3-13.3-1.2-29.3-21.8c-14.5-18.9-15.4-20.6-9-22.9c2.3-0.9,7.5-8.1,11.6-16.2c4.6-9.3,9.6-15.1,13.9-16
	c15.4-3.8,67.9-13.1,73.4-13.1c6.1,0,29.6,27,45.8,52.8l8.4,13.9l-21.5,22.6c-11.9,12.8-22.9,23.5-24.9,24.7
	C439.1,325.7,433.6,322.2,428.7,317.3L428.7,317.3z"/>
<path id="TambovOblast" class="st0" d="M342.5,427.5c-21.5-23.2-26.4-29.6-28.4-37.7c-1.5-6.7-0.9-8.1,5.8-9.6
	c7.3-2,7.3-2.3,6.7-24.7c-0.6-12.5-0.3-23.2,0.6-23.8c20.9-17.1,30.8-22.3,40.9-22.3c9,0,11.9,1.2,14.5,7.3
	c3.8,8.1,4.1,8.4,21.5,3.8c12.2-2.9,13.9-2.6,19.4,3.2l6.4,6.4l-8.1,5.8l-8.1,6.1l2,34.2l2,34.2l-29.3,14.8
	c-16.2,8.1-30.5,14.8-31.9,14.8C355.3,440,348.9,434.5,342.5,427.5L342.5,427.5z"/>
<path id="TulaOblast" class="st0" d="M283.9,256.9c-2.6-4.6-5.8-8.4-7-8.4c-1.5,0-2.3-4.6-2.3-10.2c0-7.3-2.6-13.1-9-20.3
	c-7.8-9-9.3-12.8-9.6-27l-0.3-16.2l13.1-8.1l13.1-8.1l17.1,4.9c16.8,4.6,17.4,4.6,27.9-1.5l11-6.4l8.1,18.3
	c9.3,20.9,9.3,21.5,3.5,36c-17.1,41.5-16.2,40.3-44.1,49.9l-16.5,5.8L283.9,256.9L283.9,256.9z"/>
<path id="VladimirOblast" class="st0" d="M464.7,230.5c-21.5-27-20.6-23.5-11.9-42.9l7.5-17.4l-10.4-9.6
	c-15.1-13.6-16.8-20.3-11-41.8c2.6-10.2,5.8-18.3,6.7-18.3c0.9,0,5.5,4.6,10.2,10.4c7.8,9.9,9,10.2,20.6,8.4
	c14.8-2,19.1,1.7,11.3,10.4c-4.9,5.2-4.9,6.4-0.9,13.6c2.3,4.4,8.7,9.3,13.9,11c13.1,4.1,56.6,53.1,51.6,58
	c-2.9,2.9-69.6,33.1-72.8,32.8C477.7,245.3,471,238.6,464.7,230.5L464.7,230.5z"/>
<path id="VoronezhOblast" class="st0" d="M205,489.3c-7.3-4.6-14.2-8.4-16-8.7c-2.3,0-13.6-16.5-18.3-26.4
	c-0.3-1.2,7-10.4,16.5-20.9c18.9-20.9,23.5-33.9,23.5-65.6v-16.8l16.2-11c18.3-12.2,28.4-12.2,33.1,0c1.5,4.1,4.1,7.3,5.8,7.3
	s5.5,5.8,8.7,12.8c4.1,9.6,8.1,14.2,15.4,17.1c10.4,4.4,19.4,14.5,19.4,22c0,2.6,9.3,14.2,20.3,26.4c18.3,19.7,20.3,22.9,20.3,33.9
	c0,15.1-4.6,16.2-19.7,4.6c-9.3-7-11.3-7.5-31.6-5.8c-11.9,0.9-22.3,2.3-23.2,2.9c-0.9,0.9-2.3,6.1-3.5,11.3
	c-1.7,8.4-4.1,10.4-18.9,16.2C227.4,498.9,220.1,499.2,205,489.3L205,489.3z"/>
<path id="RostovOblast" class="st0" d="M174.6,750.7c-10.7-1.5-16-5.5-16-12.8c0-7.5-19.7-42.9-24.9-45c-2.3-0.9-7,1.7-10.2,6.1
	c-5.8,7.3-7.5,7.5-25.2,7l-19.4-0.9l-1.5-11.6c-0.9-6.4-6.1-18-11.3-25.8l-9.6-14.2l4.9-15.1l5.2-15.4l-10.7-13.3
	C44.6,596,43.1,595.2,31.5,596c-5.2,0.6-6.7-0.6-5.8-4.6c0.9-4.4,3.8-5.2,14.5-5.2c7.5,0,15.4-1.7,17.4-4.1
	c4.1-4.1,0.3-8.1-19.4-22.6c-8.4-6.1-8.4-6.4-3.2-12.2c4.1-4.6,9-6.1,18.3-6.1c11.3,0,14.5,1.7,30.5,16.2l17.7,16.5l9-10.2
	c4.9-5.5,13.6-16.5,19.1-24.1c7.5-10.4,13.1-15.1,21.8-17.4c18.6-5.5,24.1-9.6,27.6-21.2c5.5-16.5,7.3-17.1,23.8-6.7
	c12.8,7.8,16.8,9,25.5,7.5c21.8-4.4,21.2-4.6,25.8,15.4c4.9,20.3,5.2,19.7-15.7,34.2c-5.8,4.1-5.8,4.1,0.9,16.5
	c6.7,12.5,6.7,12.8,1.7,23.2c-4.9,10.2-5.8,10.7-19.1,10.7c-14.5,0-31.3,6.4-31.3,11.6c0,1.7,2,7.3,4.6,11.9
	c3.8,7.5,4.1,11.3,1.5,21.8c-4.4,16.5,0.6,33.9,11.3,41.8c6.1,4.4,7.5,7.3,6.4,14.2c-1.2,8.7-0.9,9,11,9h11.9l-6.7,11.9
	c-6.7,11.9-6.7,11.9-20.3,10.2c-13.1-1.5-14.2-1.2-18.3,7C186.7,751.3,185.6,751.8,174.6,750.7z"/>
<path id="VolgogradOblast" class="st0" d="M375,692.3c-4.4-10.2-9.6-12.2-38-14.2c-9.6-0.9-37.4,4.1-41.2,7.3s-4.6,1.7-7.8-13.1
	c-2.3-10.4-5.8-9.9-16.5,2.3c-8.7,9.6-9.9,10.2-28.7,10.2c-26.4,0-33.4-3.2-37.7-16.2c-2.6-8.1-2.6-13.3,0-22.9
	c2.9-10.4,2.6-13.9-1.5-21.8c-6.7-13.1-3.2-15.4,24.1-16c11.9,0,12.8-0.9,20.3-14.2l7.5-13.9l-6.1-11l-6.4-11l11.9-9.9l12.2-10.2
	l-3.8-17.1c-2-9.6-4.4-19.7-4.9-22.9c-1.2-4.4,1.2-7.3,9.3-11.6c10.4-5.8,13.6-9.3,16.8-19.7c1.2-4.1,4.9-4.9,18.9-4.9
	c9.6,0,18.3,1.5,19.4,3.2c0.9,1.5,5.8,5.5,10.7,8.4c4.6,2.9,12.2,11.6,16.2,19.1c7.3,13.3,8.4,14.2,28.7,20
	c11.6,3.2,22.3,7.8,24.1,10.2c3.2,5.5,3.5,24.9,0,36.6c-3.5,11.9,0.3,17.4,13.1,19.7c7.5,1.5,11.9,4.6,16.2,12.2
	c3.5,5.8,10.2,12.2,14.8,14.2c6.1,2.3,9.9,7,12.5,14.5c2,6.1,3.2,12.2,2.3,13.3c-0.6,1.2-12.2,8.1-25.5,15.4
	c-27.9,15.1-29.9,17.1-31.3,30.2c-0.6,7.5-3.2,10.7-13.1,16.5l-12.2,7.3L375,692.3L375,692.3z"/>
<path id="SaratovOblast" class="st0" d="M486.7,680.1c-1.5-2.9-3.8-9.9-4.9-15.4c-1.2-5.8-6.7-22.3-12.5-37.1
	c-9-23.5-11.3-27.3-18.3-28.7c-4.9-0.9-9.9-5.2-13.9-12.8c-4.6-8.4-8.7-11.6-15.7-13.1l-9.6-1.7l0.3-25.2c0-16.2-1.2-27.3-3.5-29.9
	c-2-2.3-13.6-6.7-25.8-9.9c-20-4.9-22.6-6.4-26.7-14.8c-3.5-7.5-3.8-11-1.2-16.2c1.7-3.5,3.8-11.6,4.1-18
	c0.9-11.3,1.5-11.9,22.6-22.6c11.9-5.8,23.2-10.7,24.9-10.7c1.5,0,8.1,5.2,14.5,11.9c6.1,6.4,20.3,19.7,31,29.3
	c18,16,22,18.3,45.3,24.4c19.7,5.2,28.1,9.3,36.8,16.8c6.1,5.8,16.8,12.5,24.1,14.8c7.5,2.6,15.1,5.8,17.4,6.7
	c11.3,5.8,56.6,105,49.6,109.4c-3.8,2.3-62.7,12.2-87.6,14.8c-21.5,2-27.6,6.4-32.8,22.3C501.5,685,491.1,688.2,486.7,680.1
	L486.7,680.1z"/>
<path id="SamaraOblast" class="st0" d="M627.3,609.4c-5.8-18.9-27.9-64.1-36-74.3c-2.3-2.9-1.2-4.4,3.8-5.5c6.1-1.7,6.4-2.6,4.4-22
	c-2.3-24.7-1.7-25.2,26.4-25.2c19.4,0,21.2,0.6,36,11.6c8.7,6.4,16.2,11.6,16.8,11.6s7.8-5.8,16.2-13.1l15.4-13.1l6.4,8.7
	c7.3,10.2,11.9,10.7,19.1,2.9c6.7-7.5,10.7-7.5,19.4,0.9c4.6,4.4,8.4,12.5,11,24.4l3.8,18l-21.5,24.1
	c-25.5,28.4-22.6,26.1-46.1,36.3c-11.6,4.9-23.5,12.8-30.8,20.3c-7.5,7.5-14.8,12.5-18.9,12.5c-3.8,0-9.6,0.6-12.8,1.5
	C634.9,630.3,633.1,627.9,627.3,609.4z"/>
<path id="UlyanovskOblast" class="st0" d="M574.2,518.2c-7.8-2.3-19.4-7.5-25.8-11.9l-11.9-7.5l16.8-15.1l17.1-15.1l-3.8-17.4
	c-2-9.6-3.2-22.3-2.6-28.7l0.9-11.6l15.7-0.9c14.2-0.9,15.7-1.7,18.6-9.6c1.7-4.6,4.6-8.4,6.4-8.4c6.7,0,15.7,9,16.5,16.5
	c0.6,4.4,2.9,8.1,5.2,8.4c32.2,4.4,31.9,4.4,36.3,12.8c3.8,7,6.4,8.7,14.8,8.7c9,0,10.7,1.2,14.8,10.7c2.3,6.1,7.3,13.9,10.4,17.7
	l6.4,6.7l-13.6,13.1l-13.9,13.1L667,487.8c-14.5-10.7-16.8-11.6-34.2-11.6c-10.2,0-23.5,1.5-29.9,3.2l-11,2.9l1.7,20
	C596,524.9,596.8,524.3,574.2,518.2L574.2,518.2z"/>
<path id="PenzaOblast" class="st0" d="M501.4,484c-26.4-7.5-28.1-8.7-54.2-32.5c-14.8-13.6-27.9-26.7-28.7-28.7
	c-1.2-2.3,0.3-5.5,2.6-7.3c3.8-2.9,4.4-9.3,3.8-38L424,343l7.8-2.9c11.3-4.1,43.2,17.1,56.3,37.7c11.9,18.3,13.3,19.4,20.3,14.2
	c4.6-3.2,7.5-2.9,21.5,3.2c24.1,10.7,25.2,12.8,27,45.5l1.2,28.1l-13.3,11.6c-7.3,6.4-13.9,11.3-14.8,11.3
	C529,491.8,516.2,488,501.4,484L501.4,484z"/>
<path id="Mordovia" class="st0" d="M536.2,389.7c-18-8.7-24.9-10.7-27.3-8.4c-5.5,5.2-7,4.4-15.4-9.9c-5.2-9-13.9-17.4-27.6-26.4
	l-20.3-13.3l11-11.9c6.1-6.7,15.4-17.1,20.9-23.2c14.8-16.2,18.3-17.4,35.1-11.9l14.2,4.6v20.3c0,17.1,1.5,22.3,9,36
	c4.9,8.7,9.9,16.5,11.3,17.1c1.2,0.9,11.6-3.2,22.9-8.7c11.6-5.5,21.5-9.9,22-9.9s3.8,5.2,7,11.6l6.1,11.6l-8.7,17.4l-8.7,17.4
	l-13.9-0.3C564.1,401.6,553.6,398.4,536.2,389.7L536.2,389.7z"/>
<path id="Chuvashia" class="st0" d="M619.6,393.6c-8.4-7-9-8.4-6.4-16.5c2-5.2,2-10.4,0.6-12.8c-4.4-7-2.9-9.9,7-14.2
	c8.4-4.1,9.3-5.8,10.2-19.4c0.9-14.8,1.2-15.4,11-17.1c5.5-1.2,17.1,0,26.4,2.3l16.8,4.1l5.2,15.7c2.6,8.7,5.8,18,6.7,20.9
	c1.2,3.8-2.3,7-15.4,13.1c-16,7.5-16.8,8.7-16,17.4c0.9,10.7-0.3,11.3-21.8,13.1C630.9,401.1,627.7,400.2,619.6,393.6L619.6,393.6z"
	/>
<path id="NizhnyNovgorodOblast" class="st0" d="M544.4,341.9c-4.6-9.3-7.5-20.6-8.7-35.4l-1.5-21.5l-17.7-5.2
	c-17.7-5.2-29.6-15.7-26.4-23.8c0.9-1.7,20-11.6,42.6-22c32.2-14.8,42.1-20.6,45.3-27c4.9-9,4.4-9,18.9-4.6
	c10.2,2.9,11.6,2.6,19.4-3.8c7.3-6.1,12.8-7.5,33.1-9c13.6-0.9,27.3-3.2,30.8-5.5c5.8-3.5,7.8-2.9,19.7,3.5
	c7.3,4.1,23.5,15.7,36.3,25.8c22.6,17.7,22.9,18.6,18,24.1c-4.9,5.2-15.1,5.5-28.1,0.6c-2.3-0.9-10.2,4.9-17.7,13.1l-13.6,14.5
	l-7.8-5.8c-7.3-5.5-8.1-5.5-26.4-0.6l-18.9,5.2l-0.9,19.7c-0.9,18.9-1.2,19.7-9.3,22.6c-8.1,2.9-8.7,4.1-8.7,18.3
	c0,13.3-0.9,15.7-7.5,19.1c-6.7,3.8-7.8,3.5-11.3-0.9c-4.6-6.7-6.7-6.4-28.1,3.8c-9.9,4.6-19.7,8.7-21.2,8.7
	C552.9,355.8,548.2,349.5,544.4,341.9L544.4,341.9z"/>
</svg>
